<svg width="171" height="36" viewBox="0 0 171 36" fill="none" xmlns="http://www.w3.org/2000/svg">
<!-- MushMush Logo -->
<circle cx="18" cy="18" r="18" fill="#3C50E0"/>
<path d="M11.1445 10.4995L18.0015 18.0426V25.4995H11.1445L11.1445 10.4995Z" fill="white"/>
<path opacity="0.7" d="M24.8574 25.5L18.0004 17.9569L18.0004 10.5L24.8574 10.5L24.8574 25.5Z" fill="white"/>

<!-- MushMush Text -->
<path d="M50 26.1475H47.122L38.7415 15.4876V26.1475H35.403V9.80078H38.281L46.6616 20.4607V9.80078H50V26.1475Z" fill="#1C274C"/>
<path d="M58.7476 26.4008C56.9824 26.4008 55.5319 25.8329 54.3961 24.697C53.2756 23.5612 52.7154 22.1184 52.7154 20.3686C52.7154 18.6495 53.2833 17.222 54.4191 16.0862C55.5703 14.9504 57.0208 14.3825 58.7706 14.3825C60.5357 14.3825 62.0016 14.9888 63.1681 16.2013C64.3346 17.3986 64.8718 19.0409 64.7797 21.1284H55.8005C55.8619 21.8498 56.1612 22.4561 56.6985 22.9472C57.2357 23.4231 57.9724 23.661 58.9087 23.661C59.4766 23.661 59.9755 23.5535 60.4053 23.3386C60.8504 23.1084 61.165 22.7938 61.3492 22.3947H64.6416C64.3039 23.5766 63.5979 24.5435 62.5234 25.2956C61.449 26.0324 60.1904 26.4008 58.7476 26.4008ZM58.6785 16.9381C57.9571 16.9381 57.3508 17.13 56.8596 17.5137C56.3838 17.8821 56.0692 18.3963 55.9157 19.0563H61.3262C61.1574 18.3349 60.8197 17.8053 60.3132 17.4676C59.822 17.1146 59.2771 16.9381 58.6785 16.9381Z" fill="#1C274C"/>
<path d="M74.4765 26.1475L71.8058 22.7631L69.135 26.1475H65.3361L69.8027 20.5067L65.4513 14.6357H69.1811L71.7827 18.1583L74.3844 14.6357H78.1372L73.7858 20.5067L78.2524 26.1475H74.4765Z" fill="#1C274C"/>
<path d="M85.8052 26.2857C84.5159 26.2857 83.4568 25.9326 82.628 25.2266C81.8145 24.5052 81.4077 23.4691 81.4077 22.1184V17.3986H79.0824V14.6357H81.4077V11.4355H84.562V14.6357H87.8083V17.3986H84.562V21.4968C84.562 22.2028 84.7155 22.7093 85.0224 23.0163C85.3294 23.3079 85.8283 23.4538 86.519 23.4538C87.0101 23.4538 87.4399 23.3847 87.8083 23.2466V26.0324C87.2557 26.2012 86.588 26.2857 85.8052 26.2857Z" fill="#1C274C"/>
<path d="M91.7425 9.80078H94.7815L100.1 17.0993L105.419 9.80078H108.458V26.1475H105.119V15.5106L100.1 22.3947L95.081 15.5106V26.1475H91.7425V9.80078Z" fill="#1C274C"/>
<path d="M117.201 26.4008C115.435 26.4008 113.985 25.8329 112.849 24.697C111.729 23.5612 111.168 22.1184 111.168 20.3686C111.168 18.6495 111.736 17.222 112.872 16.0862C114.023 14.9504 115.474 14.3825 117.224 14.3825C118.989 14.3825 120.455 14.9888 121.621 16.2013C122.788 17.3986 123.325 19.0409 123.233 21.1284H114.254C114.315 21.8498 114.615 22.4561 115.152 22.9472C115.689 23.4231 116.426 23.661 117.362 23.661C117.93 23.661 118.429 23.5535 118.859 23.3386C119.304 23.1084 119.619 22.7938 119.803 22.3947H123.095C122.757 23.5766 122.051 24.5435 120.977 25.2956C119.902 26.0324 118.644 26.4008 117.201 26.4008ZM117.132 16.9381C116.411 16.9381 115.805 17.13 115.314 17.5137C114.838 17.8821 114.523 18.3963 114.37 19.0563H119.78C119.611 18.3349 119.274 17.8053 118.767 17.4676C118.276 17.1146 117.731 16.9381 117.132 16.9381Z" fill="#1C274C"/>
<path d="M125.914 26.1475V14.6357H129.068V16.4776C129.268 15.9097 129.629 15.4416 130.15 15.0732C130.688 14.6895 131.279 14.4976 131.923 14.4976C132.322 14.4976 132.675 14.5436 132.982 14.6357V17.836C132.476 17.6672 132 17.5828 131.555 17.5828C130.803 17.5828 130.197 17.859 129.736 18.4116C129.291 18.9488 129.068 19.6932 129.068 20.6449V26.1475H125.914Z" fill="#1C274C"/>
<path d="M140.295 26.4008C138.561 26.4008 137.118 25.8252 135.967 24.674C134.816 23.5075 134.24 22.08 134.24 20.3916C134.24 18.7032 134.816 17.2834 135.967 16.1323C137.118 14.9657 138.561 14.3825 140.295 14.3825C141.83 14.3825 143.112 14.8122 144.14 15.6718C145.184 16.5313 145.867 17.6518 146.189 19.0332H142.92C142.413 17.836 141.538 17.2374 140.295 17.2374C139.451 17.2374 138.76 17.529 138.223 18.1123C137.686 18.6802 137.417 19.44 137.417 20.3916C137.417 21.3433 137.686 22.1107 138.223 22.694C138.76 23.2619 139.451 23.5459 140.295 23.5459C141.538 23.5459 142.413 22.9472 142.92 21.75H146.189C145.867 23.1314 145.184 24.2519 144.14 25.1115C143.112 25.971 141.83 26.4008 140.295 26.4008Z" fill="#1C274C"/>
<path d="M154.011 26.4008C152.246 26.4008 150.796 25.8329 149.66 24.697C148.539 23.5612 147.979 22.1184 147.979 20.3686C147.979 18.6495 148.547 17.222 149.683 16.0862C150.834 14.9504 152.285 14.3825 154.034 14.3825C155.799 14.3825 157.265 14.9888 158.432 16.2013C159.598 17.3986 160.136 19.0409 160.043 21.1284H151.064C151.126 21.8498 151.425 22.4561 151.962 22.9472C152.499 23.4231 153.236 23.661 154.172 23.661C154.74 23.661 155.239 23.5535 155.669 23.3386C156.114 23.1084 156.429 22.7938 156.613 22.3947H159.905C159.568 23.5766 158.862 24.5435 157.787 25.2956C156.713 26.0324 155.454 26.4008 154.011 26.4008ZM153.942 16.9381C153.221 16.9381 152.615 17.13 152.123 17.5137C151.648 17.8821 151.333 18.3963 151.179 19.0563H156.59C156.421 18.3349 156.083 17.8053 155.577 17.4676C155.086 17.1146 154.541 16.9381 153.942 16.9381Z" fill="#1C274C"/>
</svg>
